# File created by Blade
# Date/Time:  Fri Jan 16 17:25:22 2015
# Frame Rate: 120.000 fps
#------------------------------------------------------
:FULLY-SPECIFIED
:DEGREES
1383
root -5.706860 35.181767 -9.326511 -0.037827 -5.873703 -5.723597
Spine -2.951892 -0.824783 10.295527
Head 1.412494 8.234248 -7.436297
LeftShoulder -26.423187 14.253753 5.791895
LeftArm 28.004271 -58.928732 -36.355910
LeftForeArm 21.714330 -0.000000 4.867285
LeftHand -7.754614 0.000000 0.393125
LeftHandThumb1 -26.253704 0.000000 33.147579
RightShoulder -10.661271 16.193691 -24.978712
RightArm -6.063020 21.657874 15.344855
RightForeArm -35.746544 -0.000000 17.008523
RightHand -9.717144 -0.000000 3.888858
RightHandThumb1 -24.326973 -0.000000 -32.862282
LeftUpLeg 11.381971 14.325938 7.078475
LeftLeg -9.391316 -0.000000 0.000000
LeftFoot -16.262284 28.708731 -9.292600
LeftToeBase 22.403878 -0.000000 -0.000000
RightUpLeg 7.788848 -5.389985 2.382650
RightLeg -4.290539 -0.000000 0.000000
RightFoot -6.003883 -24.674146 6.642120
RightToeBase 13.618194 -0.000000 -0.000000
1384
root -5.705071 35.181970 -9.324114 -0.051290 -5.897878 -5.724929
Spine -2.931522 -0.795840 10.302439
Head 1.391931 8.228222 -7.452918
LeftShoulder -26.393699 14.249430 5.810019
LeftArm 28.030519 -58.933488 -36.418600
LeftForeArm 21.704388 0.000000 4.841927
LeftHand -7.745434 -0.000000 0.325982
LeftHandThumb1 -26.253704 0.000000 33.147579
RightShoulder -10.649558 16.190456 -24.980169
RightArm -6.040736 21.694374 15.361434
RightForeArm -35.751152 -0.000000 16.984676
RightHand -9.620912 -0.000000 3.940277
RightHandThumb1 -24.326973 -0.000000 -32.862282
LeftUpLeg 11.397562 14.351610 7.086163
LeftLeg -9.367856 -0.000000 0.000000
LeftFoot -16.308285 28.660725 -9.355794
LeftToeBase 22.384089 -0.000000 -0.000000
RightUpLeg 7.802147 -5.346415 2.380582
RightLeg -4.284625 -0.000000 0.000000
RightFoot -6.008876 -24.688128 6.657883
RightToeBase 13.597500 -0.000000 -0.000000
1385
root -5.703436 35.182111 -9.322640 -0.056330 -5.919070 -5.727063
Spine -2.922413 -0.788532 10.309350
Head 1.372641 8.258865 -7.469310
LeftShoulder -26.386015 14.253476 5.816039
LeftArm 28.083242 -58.965788 -36.507372
LeftForeArm 21.731768 -0.000000 4.834128
LeftHand -7.851148 -0.000000 0.263955
LeftHandThumb1 -26.253704 0.000000 33.147579
RightShoulder -10.630625 16.183718 -24.976503
RightArm -5.985812 21.686458 15.392343
RightForeArm -35.723954 -0.000000 16.949427
RightHand -9.612316 0.000000 3.944009
RightHandThumb1 -24.326973 -0.000000 -32.862282
LeftUpLeg 11.413521 14.415311 7.092508
LeftLeg -9.371428 -0.000000 0.000000
LeftFoot -16.298321 28.623112 -9.339429
LeftToeBase 22.373987 -0.000000 -0.000000
RightUpLeg 7.797347 -5.356129 2.377166
RightLeg -4.265081 -0.000000 0.000000
RightFoot -6.014612 -24.659067 6.650657
RightToeBase 13.604319 -0.000000 -0.000000
1386
root -5.700101 35.182458 -9.320781 -0.068520 -5.935343 -5.719027
Spine -2.900273 -0.776706 10.315155
Head 1.347126 8.267676 -7.508071
LeftShoulder -26.363135 14.252615 5.816656
LeftArm 28.061915 -58.914238 -36.507133
LeftForeArm 21.607545 0.000000 4.793317
LeftHand -7.899907 -0.000000 0.378435
LeftHandThumb1 -26.253704 0.000000 33.147579
RightShoulder -10.624450 16.178279 -24.993447
RightArm -5.952051 21.640619 15.431139
RightForeArm -35.692624 0.000000 16.978455
RightHand -9.684141 -0.000000 4.025461
RightHandThumb1 -24.326973 -0.000000 -32.862282
LeftUpLeg 11.422044 14.370476 7.078753
LeftLeg -9.353064 -0.000000 0.000000
LeftFoot -16.322347 28.665218 -9.373281
LeftToeBase 22.372028 -0.000000 -0.000000
RightUpLeg 7.803387 -5.364414 2.362931
RightLeg -4.253363 -0.000000 0.000000
RightFoot -6.016077 -24.653251 6.628876
RightToeBase 13.630488 -0.000000 -0.000000
1387
root -5.698297 35.183023 -9.320137 -0.075141 -5.953928 -5.718647
Spine -2.887695 -0.751136 10.316284
Head 1.338028 8.259114 -7.517565
LeftShoulder -26.320237 14.244372 5.816616
LeftArm 28.063847 -58.934095 -36.517960
LeftForeArm 21.529188 -0.000000 4.784644
LeftHand -7.841333 -0.000000 0.444577
LeftHandThumb1 -26.253704 0.000000 33.147579
RightShoulder -10.604281 16.187019 -24.993123
RightArm -5.936782 21.566071 15.448698
RightForeArm -35.664994 -0.000000 16.972340
RightHand -9.643446 -0.000000 4.021428
RightHandThumb1 -24.326973 -0.000000 -32.862282
LeftUpLeg 11.429710 14.385767 7.077689
LeftLeg -9.342323 -0.000000 0.000000
LeftFoot -16.337486 28.664797 -9.387573
LeftToeBase 22.387812 -0.000000 -0.000000
RightUpLeg 7.796467 -5.375690 2.355778
RightLeg -4.229249 -0.000000 0.000000
RightFoot -6.025557 -24.617559 6.646474
RightToeBase 13.613437 -0.000000 -0.000000
1388
root -5.696737 35.183384 -9.319677 -0.079182 -5.965374 -5.719644
Spine -2.875374 -0.735361 10.312326
Head 1.324058 8.245253 -7.517482
LeftShoulder -26.283919 14.221641 5.837608
LeftArm 28.037069 -58.917640 -36.518642
LeftForeArm 21.530261 -0.000000 4.800730
LeftHand -7.856287 -0.000000 0.165439
LeftHandThumb1 -26.253704 0.000000 33.147579
RightShoulder -10.585210 16.177180 -24.965668
RightArm -5.890221 21.611955 15.448249
RightForeArm -35.709635 -0.000000 16.931128
RightHand -9.557427 -0.000000 4.062274
RightHandThumb1 -24.326973 -0.000000 -32.862282
LeftUpLeg 11.435939 14.398341 7.078217
LeftLeg -9.339920 -0.000000 0.000000
LeftFoot -16.340668 28.661981 -9.392487
LeftToeBase 22.399438 -0.000000 -0.000000
RightUpLeg 7.798109 -5.351629 2.355239
RightLeg -4.225566 -0.000000 0.000000
RightFoot -6.018436 -24.620674 6.651076
RightToeBase 13.608831 -0.000000 -0.000000
1389
root -5.693513 35.183850 -9.318682 -0.091543 -5.973284 -5.711165
Spine -2.857745 -0.732279 10.307173
Head 1.317592 8.258857 -7.527359
LeftShoulder -26.253580 14.230441 5.822852
LeftArm 28.026803 -58.921244 -36.498842
LeftForeArm 21.437744 -0.000000 4.757926
LeftHand -7.879017 0.000000 0.218636
LeftHandThumb1 -26.253704 0.000000 33.147579
RightShoulder -10.552693 16.158768 -24.958120
RightArm -5.873995 21.612568 15.458072
RightForeArm -35.747897 0.000000 16.919404
RightHand -9.470288 -0.000000 4.070439
RightHandThumb1 -24.326973 -0.000000 -32.862282
LeftUpLeg 11.451871 14.422971 7.065244
LeftLeg -9.349582 -0.000000 0.000000
LeftFoot -16.297908 28.692212 -9.358142
LeftToeBase 22.339287 -0.000000 -0.000000
RightUpLeg 7.802861 -5.360593 2.339095
RightLeg -4.211664 -0.000000 0.000000
RightFoot -6.017927 -24.619329 6.640449
RightToeBase 13.590150 -0.000000 -0.000000
1390
root -5.692153 35.184168 -9.318783 -0.090692 -5.980226 -5.709976
Spine -2.850401 -0.719570 10.307869
Head 1.302903 8.257699 -7.544074
LeftShoulder -26.217807 14.196909 5.843822
LeftArm 27.990656 -58.898616 -36.500687
LeftForeArm 21.378293 -0.000000 4.771675
LeftHand -7.873120 0.000000 0.244609
LeftHandThumb1 -26.253704 0.000000 33.147579
RightShoulder -10.546024 16.156698 -24.964823
RightArm -5.838272 21.499372 15.489066
RightForeArm -35.724612 -0.000000 16.931022
RightHand -9.552112 0.000000 4.048583
RightHandThumb1 -24.326973 -0.000000 -32.862282
LeftUpLeg 11.449607 14.423080 7.062272
LeftLeg -9.341641 -0.000000 0.000000
LeftFoot -16.310849 28.684945 -9.368945
LeftToeBase 22.342680 -0.000000 -0.000000
RightUpLeg 7.797486 -5.358445 2.335828
RightLeg -4.205372 -0.000000 0.000000
RightFoot -6.021882 -24.611439 6.645971
RightToeBase 13.632820 -0.000000 -0.000000
1391
root -5.690806 35.184299 -9.318936 -0.091639 -5.979253 -5.712290
Spine -2.839793 -0.722930 10.313131
Head 1.285679 8.248667 -7.564954
LeftShoulder -26.192564 14.201340 5.850931
LeftArm 27.978455 -58.875325 -36.515846
LeftForeArm 21.373328 -0.000000 4.775416
LeftHand -7.879557 -0.000000 0.163078
LeftHandThumb1 -26.253704 0.000000 33.147579
RightShoulder -10.526733 16.130760 -24.967650
RightArm -5.814963 21.454156 15.522903
RightForeArm -35.730982 -0.000000 16.979610
RightHand -9.574408 -0.000000 4.110007
RightHandThumb1 -24.326973 -0.000000 -32.862282
LeftUpLeg 11.447643 14.425373 7.066478
LeftLeg -9.329929 -0.000000 0.000000
LeftFoot -16.346777 28.640424 -9.417792
LeftToeBase 22.373980 -0.000000 -0.000000
RightUpLeg 7.793105 -5.386802 2.334007
RightLeg -4.196606 -0.000000 0.000000
RightFoot -6.013771 -24.595709 6.622270
RightToeBase 13.625119 -0.000000 -0.000000
1392
root -5.688430 35.184363 -9.319328 -0.089786 -5.986361 -5.708165
Spine -2.828453 -0.717077 10.310726
Head 1.264720 8.242889 -7.578291
LeftShoulder -26.172269 14.184988 5.857392
LeftArm 27.958278 -58.855559 -36.516229
LeftForeArm 21.366914 -0.000000 4.793966
LeftHand -7.868168 -0.000000 -0.050830
LeftHandThumb1 -26.253704 0.000000 33.147579
RightShoulder -10.511765 16.144449 -24.973898
RightArm -5.786411 21.350432 15.549169
RightForeArm -35.680856 -0.000000 16.991335
RightHand -9.619359 -0.000000 4.117545
RightHandThumb1 -24.326973 -0.000000 -32.862282
LeftUpLeg 11.449625 14.443510 7.054662
LeftLeg -9.346124 -0.000000 0.000000
LeftFoot -16.305906 28.681368 -9.360471
LeftToeBase 22.348490 -0.000000 -0.000000
RightUpLeg 7.785939 -5.385176 2.324337
RightLeg -4.189101 -0.000000 0.000000
RightFoot -6.015807 -24.576846 6.637666
RightToeBase 13.584696 -0.000000 -0.000000
1393
root -5.687365 35.184496 -9.320014 -0.086880 -5.982776 -5.708185
Spine -2.822480 -0.721715 10.310650
Head 1.250674 8.245163 -7.589885
LeftShoulder -26.139482 14.194853 5.857884
LeftArm 27.936815 -58.850466 -36.515901
LeftForeArm 21.282210 -0.000000 4.806951
LeftHand -7.888419 -0.000000 0.107842
LeftHandThumb1 -26.253704 0.000000 33.147579
RightShoulder -10.511023 16.118700 -24.972401
RightArm -5.731010 21.214301 15.576082
RightForeArm -35.597179 -0.000000 16.990310
RightHand -9.569230 -0.000000 4.123782
RightHandThumb1 -24.326973 -0.000000 -32.862282
LeftUpLeg 11.443022 14.432573 7.055910
LeftLeg -9.337034 -0.000000 0.000000
LeftFoot -16.337673 28.650489 -9.403580
LeftToeBase 22.405271 -0.000000 -0.000000
RightUpLeg 7.780993 -5.409513 2.320552
RightLeg -4.185555 -0.000000 0.000000
RightFoot -6.016833 -24.555455 6.635513
RightToeBase 13.635767 -0.000000 -0.000000
1394
root -5.685751 35.184542 -9.320389 -0.082041 -5.973004 -5.706514
Spine -2.822142 -0.731189 10.311899
Head 1.247067 8.229384 -7.606288
LeftShoulder -26.102099 14.189339 5.867870
LeftArm 27.870498 -58.809079 -36.466254
LeftForeArm 21.210480 -0.000000 4.806567
LeftHand -7.859481 -0.000000 0.057754
LeftHandThumb1 -26.253704 0.000000 33.147579
RightShoulder -10.491219 16.143920 -24.980237
RightArm -5.714288 21.149997 15.587967
RightForeArm -35.601823 -0.000000 16.991951
RightHand -9.568101 0.000000 4.154417
RightHandThumb1 -24.326973 -0.000000 -32.862282
LeftUpLeg 11.438391 14.423676 7.048363
LeftLeg -9.344615 -0.000000 0.000000
LeftFoot -16.326130 28.643947 -9.406441
LeftToeBase 22.366125 -0.000000 -0.000000
RightUpLeg 7.777710 -5.418070 2.316344
RightLeg -4.190236 -0.000000 0.000000
RightFoot -6.021445 -24.551146 6.646253
RightToeBase 13.608651 -0.000000 -0.000000
